<?xml version="1.0" standalone="no"?>
<!DOCTYPE svg PUBLIC "-//W3C//DTD SVG 20010904//EN"
 "http://www.w3.org/TR/2001/REC-SVG-20010904/DTD/svg10.dtd">
<svg version="1.0" xmlns="http://www.w3.org/2000/svg"
 width="592.000000pt" height="592.000000pt" viewBox="0 0 592.000000 592.000000"
 preserveAspectRatio="xMidYMid meet">
<metadata>
Created by potrace 1.14, written by Peter Selinger 2001-2017
</metadata>
<g transform="translate(0.000000,592.000000) scale(0.100000,-0.100000)"
fill="#000000" stroke="none">
<path d="M1851 5670 c-4 -3 -7 -642 -6 -1420 0 -778 -3 -1425 -6 -1436 -4 -12
-408 -422 -898 -912 -490 -489 -891 -895 -891 -901 0 -12 38 -93 234 -494 58
-119 106 -221 106 -226 0 -5 6 -14 14 -20 12 -10 190 163 1009 983 l995 994
96 0 c52 0 100 3 106 7 5 3 10 3 10 -2 0 -9 83 -8 106 1 8 3 14 2 14 -2 0 -7
167 -5 188 3 6 2 12 1 12 -3 0 -8 85 -6 106 2 8 3 14 2 14 -2 0 -7 167 -5 188
3 6 2 12 1 12 -3 0 -8 85 -6 106 2 8 3 14 2 14 -2 0 -7 167 -5 188 3 6 2 12 1
12 -3 0 -8 85 -6 106 2 8 3 14 2 14 -2 0 -4 61 -7 135 -7 74 0 135 2 135 5 0
3 20 5 45 5 25 0 45 -2 45 -5 0 -3 15 -4 33 -3 67 4 96 4 225 1 72 -2 132 1
132 5 0 5 4 6 9 3 8 -5 127 -10 146 -6 6 1 24 1 40 0 66 -5 285 -5 285 0 0 3
20 5 45 5 25 0 45 -2 45 -5 0 -3 15 -4 33 -3 67 4 96 4 225 1 72 -2 132 1 132
5 0 5 4 6 9 3 8 -5 127 -10 146 -6 6 1 14 2 19 1 26 -5 197 -4 202 2 7 6 4 13
-171 372 -187 385 -199 409 -210 418 -5 4 -25 6 -42 4 -18 -1 -33 0 -33 5 0 4
-10 4 -22 -1 -12 -4 -37 -5 -55 -1 -18 5 -33 5 -33 1 0 -4 -19 -5 -42 -3 -49
4 -51 4 -100 0 -21 -2 -38 0 -38 3 0 4 -15 4 -33 -1 -18 -4 -43 -3 -55 1 -12
5 -22 5 -22 1 0 -4 -24 -6 -52 -4 -66 4 -92 4 -146 0 -23 -2 -42 0 -42 3 0 3
-20 3 -43 -1 -24 -3 -52 -3 -63 1 -10 3 -23 4 -28 1 -12 -7 -196 -8 -196 -1 0
3 -20 3 -45 -1 -25 -4 -48 -3 -51 2 -3 4 -13 4 -22 0 -9 -5 -30 -6 -47 -2 -16
3 -47 3 -68 -1 -20 -3 -40 -2 -43 2 -3 5 -13 5 -23 -1 -10 -5 -20 -7 -23 -5
-4 4 -34 5 -198 6 -14 0 -44 -1 -68 -3 -23 -2 -42 0 -42 3 0 3 -20 3 -43 -1
-24 -3 -52 -3 -63 1 -10 3 -23 4 -28 1 -12 -7 -181 -6 -193 1 -5 3 -15 2 -22
-2 -7 -5 -29 -5 -49 -1 -20 3 -48 3 -62 0 -14 -4 -35 -3 -46 1 -12 4 -24 5
-27 2 -8 -8 -77 -9 -77 -2 0 4 -15 4 -33 -1 -18 -4 -43 -3 -55 1 -12 5 -22 5
-22 1 0 -4 -24 -6 -52 -4 -29 2 -66 2 -83 1 -16 0 -36 -1 -42 0 -19 1 -41 2
-110 0 -34 0 -66 1 -70 4 -5 3 -9 595 -8 1316 0 721 -2 1311 -5 1312 -18 4
-783 3 -789 -1z"/>
</g>
</svg>
