<svg xmlns="http://www.w3.org/2000/svg">
    <symbol id="logo" viewBox="0 0 30 30">
        <path d="M13.773 14.381v-11.48h3.2v10.543h11.062l1.557 3.2h-13.556l-7.986 7.985-1.481-3.044 7.204-7.204z"></path>
    </symbol>
    <symbol viewBox="0 0 32 24" id="2D">
        <path d="M23.797 3a6.21 6.21 0 016.21 6.21v5.58a6.21 6.21 0 01-6.21 6.21h-4.79V3h4.79zm0-1h-5.79v20h5.79a7.21 7.21 0 007.21-7.21V9.21A7.21 7.21 0 0023.797 2zM2.257 6.5c0-2.16 1.964-4 4.5-4s4.5 1.84 4.5 4c0 .499-.002.87-.15 1.354-.151.493-.464 1.133-1.137 2.113C8.648 11.889 6.014 15.013.757 20.76V22h12.25v-1H1.892c4.99-5.467 7.57-8.53 8.902-10.467.701-1.02 1.076-1.755 1.27-2.387.193-.634.193-1.134.193-1.63V6.5c0-2.81-2.513-5-5.5-5s-5.5 2.19-5.5 5v.75h1V6.5z"></path>
    </symbol>
    <symbol viewBox="0 0 31 24" id="3D">
        <path d="M23.547 3a6.21 6.21 0 016.21 6.21v5.58a6.21 6.21 0 01-6.21 6.21h-4.79V3h4.79zm0-1h-5.79v20h5.79a7.21 7.21 0 007.21-7.21V9.21A7.21 7.21 0 0023.547 2zM2.007 6.75c0-2.301 1.828-4.25 4.5-4.25 2.671 0 4.5 1.949 4.5 4.25S9.178 11 6.507 11h-1.25v1h1.25c2.943 0 5 2.168 5 4.75s-2.057 4.75-5 4.75-5-2.168-5-4.75h-1c0 3.217 2.592 5.75 6 5.75s6-2.533 6-5.75c0-2.383-1.31-4.39-3.502-5.271 1.91-.842 3.002-2.621 3.002-4.729 0-2.945-2.373-5.25-5.5-5.25s-5.5 2.305-5.5 5.25h1z"></path>
    </symbol>
    <symbol viewBox="0 0 25 24" id="angle">
        <path d="M11.742 20.5H3.757v-7.986a8.501 8.501 0 017.985 7.986zm1.002 0a9.5 9.5 0 00-8.987-8.987V2.5h-1v19h19v-1h-9.013z"></path>
    </symbol>
    <symbol viewBox="0 0 25 24" id="area">
        <path d="M5.257 3.39l13.14 4.38 2.59 12.08-15.73-1.75V3.39zm-1-1.39v17l18 2-3-14-15-5z"></path>
    </symbol>
    <symbol viewBox="0 0 25 24" id="back">
        <path d="M22.377 14.1a10.838 10.838 0 00-2.3-3.42 10.76 10.76 0 00-15.21 0l-2.61 2.61V8.64h-1V15h6.36v-1h-4.66l2.62-2.62a9.77 9.77 0 0113.79 0 9.63 9.63 0 012.09 3.11c.07.16.13.34.19.51h1.06c-.1-.3-.2-.61-.33-.9z"></path>
    </symbol>
    <symbol viewBox="0 0 25 24" id="brain">
        <g clip-path="url(#clip0)">
            <path d="M12.257 17.834l.267.422.233-.147v-.275h-.5zm-.013.008l-.268-.423-.212.135-.018.25.498.038zm-8.85-1.45l.485.124L4 16.03l-.484-.123-.123.485zM3.25 9.648l.144.48.643-.194-.37-.56-.417.274zm3.008-4.605l-.083.493.587.098-.004-.595-.5.004zm0-.042h-.5v.003l.5-.003zm5.5 0v12.5h1V5h-1zm0 12.5v.334h1V17.5h-1zm.232-.089l-.013.008.536.845.012-.008-.535-.845zM7.757 22.5a5 5 0 004.986-4.62l-.998-.076A4 4 0 017.758 21.5v1zm-5-5a5 5 0 005 5v-1a4 4 0 01-4-4h-1zm.152-1.23a5.01 5.01 0 00-.152 1.23h1c0-.34.042-.67.122-.985l-.97-.245zM.257 13a4.002 4.002 0 003.014 3.877l.246-.969A3.001 3.001 0 011.257 13h-1zm2.848-3.832A4.001 4.001 0 00.257 13h1c0-1.356.9-2.503 2.136-2.874l-.288-.958zM2.257 8c0 .709.211 1.37.575 1.922l.835-.55A2.486 2.486 0 013.257 8h-1zm3.5-3.5a3.5 3.5 0 00-3.5 3.5h1a2.5 2.5 0 012.5-2.5v-1zm.583.048a3.52 3.52 0 00-.583-.048v1a2.52 2.52 0 01.417.035l.166-.987zm-.583.455v.042l1-.007v-.041l-1 .006zm3.5-3.503a3.5 3.5 0 00-3.5 3.5h1a2.5 2.5 0 012.5-2.5v-1zm3.5 3.5a3.5 3.5 0 00-3.5-3.5v1a2.5 2.5 0 012.5 2.5h1z"></path>
            <path d="M21.12 16.393l-.485.123-.123-.485.485-.123.123.485zm.144-6.746l-.143.48-.643-.194.369-.56.417.274zm-3.007-4.605l.082.493-.587.098.005-.595.5.004zm0-.042h.5v.003l-.5-.003zm-5.5 0v12.5h-1V5h1zm4 17.5a5 5 0 01-5-5h1a4 4 0 004 4v1zm5-5a5 5 0 01-5 5v-1a4 4 0 004-4h1zm-.153-1.23a5.008 5.008 0 01.153 1.23h-1c0-.34-.043-.67-.122-.985l.97-.245zM24.257 13a4.001 4.001 0 01-3.015 3.877l-.245-.969A3.001 3.001 0 0023.257 13h1zm-2.849-3.832A4.001 4.001 0 0124.257 13h-1c0-1.356-.9-2.503-2.136-2.874l.287-.958zM22.257 8c0 .709-.212 1.37-.575 1.922l-.835-.55A2.486 2.486 0 0021.257 8h1zm-3.5-3.5a3.5 3.5 0 013.5 3.5h-1a2.5 2.5 0 00-2.5-2.5v-1zm-.583.048a3.519 3.519 0 01.583-.048v1a2.5 2.5 0 00-.418.035l-.165-.987zm.583.455v.042l-1-.007v-.041l1 .006zm-3.5-3.503a3.5 3.5 0 013.5 3.5h-1a2.5 2.5 0 00-2.5-2.5v-1zm-3.5 3.5a3.5 3.5 0 013.5-3.5v1a2.5 2.5 0 00-2.5 2.5h-1z"></path>
        </g>
        <defs>
            <clipPath id="clip0">
                <path transform="translate(.257)" d="M0 0h24v24H0z"></path>
            </clipPath>
        </defs>
    </symbol>
    <symbol viewBox="0 0 25 24" id="brightness">
        <path d="M12.757 3h-1v3h1V3zm-4.39 4.4l-2.11-2.12-.72.72 2.12 2.11.71-.71zm-2.11 4.1h-3v1h3v-1zm-.72 6.5l.71.71 2.12-2.11-.71-.71L5.537 18zm6.22 3h1v-3h-1v3zm4.39-4.4l2.11 2.12.71-.71-2.11-2.12-.71.71zm2.11-5.1v1h3v-1h-3zm.72-5.5l-.72-.72-2.11 2.12.71.71L18.977 6zm-6.72 2a4 4 0 00-2.829 6.828A4 4 0 1012.257 8zm0 7a3 3 0 01-2.942-3.585A3 3 0 1112.257 15z" ></path>
    </symbol>
    <symbol viewBox="0 0 25 24" id="camera">
        <path d="M19.257 6h-1.86l-1.73-3h-6.82l-1.73 3h-1.86a3 3 0 00-3 3v9a3 3 0 003 3h14a3 3 0 003-3V9a3 3 0 00-3-3zm2 12a2 2 0 01-2 2h-14a2 2 0 01-2-2V9a2 2 0 012-2h2.44l.28-.5L9.427 4h5.66l1.45 2.5.28.5h2.44a2 2 0 012 2v9zm-9-9a4 4 0 00-2.829 6.828A4 4 0 1012.257 9zm0 7a3 3 0 01-2.943-3.585A3 3 0 1112.257 16z" ></path>
    </symbol>
    <symbol viewBox="0 0 25 24" id="clear">
        <path d="M20.607 4.35l-.7-.7-7.65 7.64-7.65-7.64-.7.7 7.64 7.65-7.64 7.65.7.7 7.65-7.64 7.65 7.64.7-.7-7.64-7.65 7.64-7.65z"></path>
    </symbol>
    <symbol viewBox="0 0 25 24" id="collapse">
        <path d="M16.257 9V4h-1v6h6V9h-5zm-8 0h-5v1h6V4h-1v5zm7 11h1v-5h5v-1h-6v6zm-12-5h5v5h1v-6h-6v1z" ></path>
    </symbol>
    <symbol viewBox="0 0 25 24" id="coronal">
        <path d="M9.586 7.16l.99.57.01-5.31 9.37 5.4-.03 10.77-4.99-2.88v1.13l5.97 3.45.04-13.04L9.606.7l-.02 6.46z"></path>
        <path d="M13.926 21.58l-9.36-5.4.03-10.76 4.98 2.88.01-1.14-5.99-3.46-.03 13.05 11.35 6.55.02-6.46-1-.57-.01 5.31z" ></path>
        <path d="M13.956 10.82l-.02 4.31 1 .58.02-5.45-4.38-2.53-.01 1.14 3.39 1.95z" ></path>
        <path d="M13.937 15.13v1.14l1 .57v-1.13l-1-.58zm-3.37-6.26l.01-1.14-.99-.57-.01 1.14.99.57z" ></path>
    </symbol>
    <symbol viewBox="0 0 25 24" id="cursor">
        <g clip-path="url(#clip0)">
            <path d="M3.034 3.713l17.327 6.819-7.15 2.75-.41.156-.155.41-2.75 7.15L3.033 3.712zM1.217 1.896l8.65 21.859 3.684-9.525 9.525-3.684-21.86-8.65z"></path>
        </g>
        <defs>
            <clipPath id="clip0">
                <path transform="translate(.257)" d="M0 0h24v24H0z"></path>
            </clipPath>
        </defs>
    </symbol>
    <symbol viewBox="0 0 25 24" id="D">
        <path d="M11.547 3a6.21 6.21 0 016.21 6.21v5.58a6.21 6.21 0 01-6.21 6.21h-4.79V3h4.79zm0-1h-5.79v20h5.79a7.21 7.21 0 007.21-7.21V9.21A7.21 7.21 0 0011.547 2z"></path>
    </symbol>
    <symbol viewBox="0 0 25 24" id="download">
        <path d="M17.607 10.43l-.7-.71-4.15 4.15V2h-1v11.87l-4.15-4.15-.7.71 5.35 5.36 5.35-5.36zM3.257 19.5v1h18v-1h-18z"></path>
    </symbol>
    <symbol viewBox="0 0 25 24" id="E">
        <path d="M7.757 21v-8.67h9.36v-1h-9.36V3h10.06V2H6.757v20h11.36v-1H7.757z" ></path>
    </symbol>
    <symbol viewBox="0 0 25 24" id="edge-detection" fill="none">
        <path stroke="#fff" d="M10.936 2.522c2.642.206 4.212 2.704 6.094 4.534 1.897 1.844 4.574 3.362 4.719 5.979.148 2.679-1.788 5.113-4.02 6.663-1.937 1.344-4.425.702-6.793.844-2.655.159-6.012 2.06-7.677.023-1.697-2.076 1.442-4.87 1.54-7.53.089-2.453-2.253-4.882-1.01-7.012 1.376-2.356 4.388-3.716 7.147-3.5z"></path>
    </symbol>
    <symbol viewBox="0 0 25 24" id="eraser">
        <g clip-path="url(#clip0)">
            <path d="M17.813 4l3.536 3.535c.339.34.557.559.714.738.15.172.192.252.21.294a1 1 0 010 .765c-.018.042-.06.122-.21.294-.157.18-.375.399-.714.738l-6.01 6.01-6.365-6.364L14.984 4c.34-.34.56-.558.738-.714.173-.15.253-.193.294-.21a1 1 0 01.766 0c.041.017.122.06.294.21.179.156.398.375.737.714zm-9.546 6.718l-6.01 6.01c-.34.34-.558.558-.714.737-.15.173-.193.253-.21.295a1 1 0 000 .765c.017.041.06.122.21.294.156.179.375.398.714.737L3.7 21h7.013l3.918-3.918-6.364-6.365zM12.127 21l9.929-9.929c.659-.659.988-.988 1.14-1.356a2 2 0 000-1.53c-.152-.368-.481-.698-1.14-1.357L18.52 3.293c-.659-.659-.988-.988-1.356-1.14a2 2 0 00-1.53 0c-.368.152-.697.481-1.356 1.14L1.55 16.021c-.66.659-.989.988-1.14 1.356a2 2 0 000 1.53c.151.368.48.698 1.14 1.357L3.286 22h20.049v-1H12.127z"></path>
        </g>
        <defs>
            <clipPath id="clip0">
                <path transform="translate(.257)" d="M0 0h24v24H0z"></path>
            </clipPath>
        </defs>
    </symbol>
    <symbol viewBox="0 0 25 24" id="expand">
        <path d="M16.257 4v1h5v5h1V4h-6zm-14 6h1V5h5V4h-6v6zm19 9h-5v1h6v-6h-1v5zm-18-5h-1v6h6v-1h-5v-5z"></path>
    </symbol>
    <symbol viewBox="0 0 25 24" id="file">
        <path d="M15.257 3l4 4v14h-14V3h10zm.41-1H4.257v20h16V6.59L15.667 2z" ></path>
    </symbol>
    <symbol viewBox="0 0 25 24" id="folder">
        <path d="M21.257 9V5h-10l-2-2h-6v6h-2l2 12h18l2-12h-2zm-17-5h4.54l2 2h9.46v3h-16V4zm-1.82 6h19.64l-1.67 10h-16.3l-1.67-10z" ></path>
    </symbol>
    <symbol viewBox="0 0 25 24" id="forth">
        <path d="M22.257 8.64v4.65l-2.61-2.61a10.76 10.76 0 00-15.21 0 10.91 10.91 0 00-2.3 3.41c-.13.3-.23.6-.33.91h1.06c.06-.17.12-.35.19-.52a9.76 9.76 0 017.116-5.77 9.76 9.76 0 018.764 2.67l2.62 2.62h-4.66v1h6.36V8.64h-1z"></path>
    </symbol>
    <symbol viewBox="0 0 25 24" id="grid">
        <path d="M3.257 11h8V3h-8v8zm1-7h6v6h-6V4zm9-1v8h8V3h-8zm7 7h-6V4h6v6zm-17 11h8v-8h-8v8zm1-7h6v6h-6v-6zm9 7h8v-8h-8v8zm1-7h6v6h-6v-6z"></path>
    </symbol>
    <symbol viewBox="0 0 25 24" id="I">
        <path d="M17.616 3V2H6.896v1h4.86v18h-4.86v1h10.72v-1h-4.86V3h4.86z" ></path>
    </symbol>
    <symbol viewBox="0 0 25 24" id="isosurface">
        <path d="M4.257 15.72V4h11.72v3.28h1V3H3.257v13.71h4.28v-.99h-3.28zm12.72-8.44v1h3.28V20H8.537v-3.29h-1V21h13.72V7.28h-4.28z" ></path>
        <path d="M15.977 8.28v-1h-8.44v8.44h1V8.28h7.44zm-7.44 7.44h-1v1h1v-1zm8.44-8.44h-1v1h1v-1z"></path>
    </symbol>
    <symbol viewBox="0 0 25 24" id="lightning">
        <path d="M13.257 3l-1.47 5.76-.31 1.24h6.78l-8.1 12.88 1.94-7.65.32-1.23h-6l2.92-11h3.92zm1.28-1h-5.97l-3.4 13h6l-2.33 9h1.8l9.43-15h-7.31l1.74-7h.04z" ></path>
    </symbol>
    <symbol viewBox="0 0 25 24" id="line">
        <path d="M20.614 2.942l.7.7L12.967 12l-.71.71L3.9 21.056l-.7-.7L11.547 12l.71-.71 8.357-8.348z" ></path>
    </symbol>
    <symbol viewBox="0 0 25 24" id="link">
        <path d="M20.747 3.51a5 5 0 00-7.08 0l-2.19 2.2c.425 0 .847.05 1.26.15l1.64-1.64a4.002 4.002 0 015.66 5.66l-4.24 4.24a4 4 0 01-5.66 0 3.8 3.8 0 01-1-1.82l-.76.76a4.26 4.26 0 001.06 1.77 5 5 0 007.07 0l4.25-4.24a5 5 0 001.08-5.458 5 5 0 00-1.09-1.622zm-10.61 16.27a4.002 4.002 0 01-5.66-5.66l4.24-4.24a4 4 0 014.362-.868 4 4 0 011.298.868 3.8 3.8 0 011 1.82l.76-.76a4.26 4.26 0 00-1.06-1.77 5 5 0 00-7.07 0l-4.24 4.24a5.006 5.006 0 000 7.08 5.007 5.007 0 007.08 0l2.19-2.2a5.364 5.364 0 01-1.26-.15l-1.64 1.64z" ></path>
    </symbol>
    <symbol viewBox="0 0 25 24" id="lungs">
        <g clip-path="url(#clip0)">
            <path fill-rule="evenodd" clip-rule="evenodd" d="M12.757 0h-1v8.76l-1.5 1.2V4.5h-2.86c-.869 0-1.545 0-2.093.036-.555.037-1.012.113-1.436.282a4.5 4.5 0 00-2.417 2.278c-.193.414-.295.865-.365 1.418-.068.544-.108 1.22-.159 2.086v.018l-.67 11.353-.035.605.6-.08 3.796-.508.122-.016c1.52-.204 2.423-.324 3.144-.711a4.5 4.5 0 002.085-2.383c.288-.766.288-1.676.287-3.21V11.24l2-1.6 2 1.6v4.428c0 1.534 0 2.444.287 3.21a4.5 4.5 0 002.085 2.383c.721.387 1.624.507 3.144.71l.121.017 3.796.508.601.08-.035-.605-.668-11.353-.001-.018c-.051-.867-.091-1.542-.16-2.086-.069-.553-.172-1.004-.365-1.417a4.5 4.5 0 00-2.416-2.28c-.424-.168-.88-.244-1.437-.28-.547-.037-1.224-.037-2.092-.037h-2.86v5.46l-1.5-1.2V0zm-8.52 5.747c.288-.114.628-.18 1.134-.213C5.88 5.5 6.524 5.5 7.415 5.5h1.842v10.045c0 1.694-.008 2.407-.223 2.981a3.5 3.5 0 01-1.622 1.853c-.54.29-1.246.393-2.925.618l-3.195.427.632-10.747c.053-.889.09-1.531.154-2.038.064-.503.149-.84.28-1.12a3.5 3.5 0 011.88-1.772zm16.04 0c-.288-.114-.628-.18-1.134-.213-.51-.034-1.154-.034-2.044-.034h-1.843v10.045c0 1.694.008 2.407.224 2.981a3.5 3.5 0 001.622 1.853c.54.29 1.246.393 2.925.618l3.195.427-.632-10.747c-.053-.889-.09-1.531-.155-2.038-.063-.503-.148-.84-.279-1.12a3.5 3.5 0 00-1.88-1.772z" ></path>
        </g>
        <defs>
            <clipPath id="clip0">
                <path fill="#fff" transform="translate(.257)" d="M0 0h24v24H0z"></path>
            </clipPath>
        </defs>
    </symbol>
    <symbol viewBox="0 0 25 24" id="M">
        <path d="M17.727 2.02l-5.47 13.73-5.47-13.73h-1.41v20h1V3.48l5.4 13.54h.96l5.4-13.54v18.54h1v-20h-1.41z"></path>
    </symbol>
    <symbol viewBox="0 0 25 24" id="noise-reduction">
        <g clip-path="url(#clip0)">
            <path d="M18.62 5.636A9 9 0 115.894 18.364 9 9 0 0118.62 5.636zm.708-.707A10 10 0 008.43 2.76a10 10 0 1010.898 2.167z"></path>
            <mask id="a" x="2" y="2" width="21" height="20">
                <path d="M5.186 4.928c3.905-3.905 10.237-3.905 14.142 0 3.905 3.906 3.905 10.237 0 14.143-3.905 3.905-10.237 3.905-14.142 0-3.905-3.906-3.905-10.237 0-14.143z"></path>
            </mask>
            <g mask="url(#a)">
                <path d="M3.065 21.9a.5.5 0 11-.707.707.5.5 0 01.706-.708zm1.414 1.414a.5.5 0 11-.707.707.5.5 0 01.707-.707zm1.414 2.12a.5.5 0 10-.707-.706.5.5 0 00.707.707zm1.414.708a.5.5 0 11-.707.707.5.5 0 01.707-.707zm1.414 2.121a.5.5 0 10-.707-.707.5.5 0 00.707.707zm1.415.707a.5.5 0 11-.708.708.5.5 0 01.708-.708zm1.414 2.122a.5.5 0 000-.707.5.5 0 10-.707.707.5.5 0 00.707 0zM4.479 20.485a.5.5 0 11-.707.707.5.5 0 01.707-.707zm1.414 2.122a.5.5 0 10-.707-.708.5.5 0 00.707.708zm1.414.707a.5.5 0 11-.707.707.5.5 0 01.707-.707zm1.414 2.12a.5.5 0 10-.707-.706.5.5 0 00.707.707zm1.415.708a.5.5 0 11-.707.707.5.5 0 01.707-.707zm1.414 2.121a.5.5 0 10-.707-.707.5.5 0 00.707.707zm1.414.707a.5.5 0 11-.707.707.5.5 0 01.707-.707zm-7.071-9.192a.5.5 0 10-.707-.707.5.5 0 00.707.707zm1.414.707a.5.5 0 11-.707.707.5.5 0 01.707-.707zm1.414 2.121a.5.5 0 10-.707-.707.5.5 0 00.707.707zm1.415.708a.5.5 0 11-.707.707.5.5 0 01.707-.707zm1.414 2.12a.5.5 0 000-.706.5.5 0 10-.707.707.5.5 0 00.707 0zm1.414.708a.5.5 0 11-.707.707.5.5 0 01.707-.707zm1.414 2.121a.5.5 0 10-.707-.707.5.5 0 00.707.707zm-7.07-10.606a.5.5 0 11-.708.707.5.5 0 01.707-.707zm1.413 2.121a.5.5 0 10-.707-.707.5.5 0 00.707.707zm1.415.707a.5.5 0 11-.707.707.5.5 0 01.707-.707zm1.414 2.122a.5.5 0 000-.708.5.5 0 10-.707.708.5.5 0 00.707 0zm1.414.707a.5.5 0 11-.707.707.5.5 0 01.707-.707zm1.414 2.12a.5.5 0 10-.707-.706.5.5 0 00.707.707zm1.414.708a.5.5 0 010 .707.5.5 0 01-.707 0 .5.5 0 11.707-.707zm-7.07-9.192a.5.5 0 10-.708-.707.5.5 0 00.707.707zm1.414.707a.5.5 0 11-.707.707.5.5 0 01.707-.707zm1.414 2.121a.5.5 0 10-.707-.707.5.5 0 00.707.707zm1.414.707a.5.5 0 11-.707.707.5.5 0 01.707-.707zm1.414 2.122a.5.5 0 10-.707-.708.5.5 0 00.707.708zm1.414.707a.5.5 0 010 .707.5.5 0 01-.707 0 .5.5 0 010-.707.5.5 0 01.707 0zm1.415 2.12a.5.5 0 000-.706.5.5 0 00-.707 0 .5.5 0 000 .707.5.5 0 00.707 0zm-7.071-10.606a.5.5 0 11-.707.707.5.5 0 01.707-.707zm1.414 2.122a.5.5 0 10-.707-.707.5.5 0 00.707.707zm1.414.707a.5.5 0 11-.707.707.5.5 0 01.707-.707zm1.414 2.121a.5.5 0 10-.707-.707.5.5 0 00.707.707zm1.414.707a.5.5 0 11-.707.707.5.5 0 010-.707.5.5 0 01.707 0zm1.415 2.122a.5.5 0 000-.708.5.5 0 00-.707 0 .5.5 0 10.707.708zm1.414.707a.5.5 0 010 .707.5.5 0 01-.707 0 .5.5 0 010-.707.5.5 0 01.707 0zM11.55 14.12a.5.5 0 000-.707.5.5 0 10-.707.707.5.5 0 00.707 0zm1.414.707a.5.5 0 11-.707.707.5.5 0 01.707-.707zm1.414 2.122a.5.5 0 10-.707-.707.5.5 0 00.707.707zm1.414.707a.5.5 0 010 .707.5.5 0 01-.707 0 .5.5 0 11.707-.707zm1.415 2.121a.5.5 0 10-.707-.707.5.5 0 00.707.707zm1.414.707a.5.5 0 11-.707.707.5.5 0 010-.707.5.5 0 01.707 0zm1.414 2.122a.5.5 0 000-.708.5.5 0 10-.707.708.5.5 0 00.707 0zM12.965 12a.5.5 0 11-.708.707.5.5 0 01.707-.707zm1.413 2.121a.5.5 0 10-.707-.707.5.5 0 00.707.707zm1.414.707a.5.5 0 010 .707.5.5 0 01-.707 0 .5.5 0 010-.707.5.5 0 01.707 0zm1.415 2.122a.5.5 0 10-.707-.707.5.5 0 000 .707.5.5 0 00.707 0zm1.414.707a.5.5 0 010 .707.5.5 0 01-.707 0 .5.5 0 11.707-.707zm1.414 2.121a.5.5 0 10-.707-.707.5.5 0 00.707.707zm1.414.707a.5.5 0 11-.707.707.5.5 0 01.707-.707zm-7.07-9.192a.5.5 0 10-.708-.707.5.5 0 00.707.707zm1.413.707a.5.5 0 010 .707.5.5 0 01-.707 0 .5.5 0 010-.707.5.5 0 01.707 0zm1.415 2.121a.5.5 0 000-.707.5.5 0 00-.707 0 .5.5 0 000 .707.5.5 0 00.707 0zm1.414.707a.5.5 0 010 .707.5.5 0 01-.707 0 .5.5 0 010-.707.5.5 0 01.707 0zm1.414 2.122a.5.5 0 10-.707-.707.5.5 0 00.707.707zm1.414.707a.5.5 0 010 .707.5.5 0 11-.707-.707.5.5 0 01.707 0zm1.415 2.121a.5.5 0 000-.707.5.5 0 00-.708 0 .5.5 0 000 .707.5.5 0 00.708 0zM15.792 9.172a.5.5 0 11-.707.706.5.5 0 11.707-.706zm1.415 2.12a.5.5 0 000-.706.5.5 0 00-.707 0 .5.5 0 10.707.707zM18.62 12a.5.5 0 010 .707.5.5 0 01-.707 0 .5.5 0 010-.707.5.5 0 01.707 0zm1.414 2.121a.5.5 0 000-.707.5.5 0 10-.707.707.5.5 0 00.707 0zm1.414.707a.5.5 0 010 .707.5.5 0 11-.707-.707.5.5 0 01.707 0zm1.415 2.122a.5.5 0 10-.708-.707.5.5 0 00.708.707zm1.414.707a.5.5 0 11-.708.707.5.5 0 01.708-.707zm-7.071-9.193a.5.5 0 10-.707-.707.5.5 0 10.707.707zm1.414.708a.5.5 0 11-.707.707.5.5 0 11.707-.707zm1.414 2.12a.5.5 0 000-.706.5.5 0 10-.707.707.5.5 0 00.707 0zM21.45 12a.5.5 0 010 .707.5.5 0 11-.707-.707.5.5 0 01.707 0zm1.415 2.121a.5.5 0 10-.708-.707.5.5 0 00.708.707zm1.414.707a.5.5 0 11-.708.707.5.5 0 01.708-.707zm1.414 2.122a.5.5 0 10-.707-.707.5.5 0 00.707.707zM18.621 6.343a.5.5 0 11-.707.707.5.5 0 01.707-.707zm1.414 2.121a.5.5 0 10-.707-.707.5.5 0 00.707.707zm1.414.707a.5.5 0 11-.707.708.5.5 0 01.707-.707zm1.415 2.122a.5.5 0 10-.708-.707.5.5 0 00.708.707zm1.414.707a.5.5 0 11-.708.707.5.5 0 01.708-.707zm1.414 2.121a.5.5 0 10-.707-.707.5.5 0 00.707.707zm1.414.707a.5.5 0 010 .707.5.5 0 01-.707 0 .5.5 0 010-.707.5.5 0 01.707 0zm-7.07-9.192a.5.5 0 10-.708-.707.5.5 0 00.707.707zm1.413.707a.5.5 0 11-.707.707.5.5 0 01.707-.707zm1.415 2.121a.5.5 0 10-.708-.707.5.5 0 00.708.707zm1.414.708a.5.5 0 01-.707.707.5.5 0 11.707-.707zm1.414 2.12a.5.5 0 10-.707-.706.5.5 0 00.707.707zm1.414.708a.5.5 0 010 .707.5.5 0 01-.707 0 .5.5 0 010-.707.5.5 0 01.707 0zm1.414 2.121a.5.5 0 000-.707.5.5 0 00-.707 0 .5.5 0 000 .707.5.5 0 00.707 0zM21.45 3.515a.5.5 0 11-.708.707.5.5 0 01.707-.707zm1.414 2.12a.5.5 0 10-.708-.706.5.5 0 00.708.707zm1.414.708a.5.5 0 11-.708.707.5.5 0 01.708-.707zm1.414 2.121a.5.5 0 00-.707-.707.5.5 0 10.707.707zm1.414.707a.5.5 0 11-.707.708.5.5 0 11.707-.707zm1.414 2.122a.5.5 0 000-.707.5.5 0 00-.707 0 .5.5 0 10.707.707zm1.415.707a.5.5 0 010 .707.5.5 0 11-.707-.707.5.5 0 01.707 0zm-7.071-9.192a.5.5 0 10-.708-.708.5.5 0 00.708.707zm1.414.707a.5.5 0 01-.707.707.5.5 0 11.707-.707zm1.414 2.12a.5.5 0 00-.707-.706.5.5 0 10.707.707zm1.414.708a.5.5 0 11-.707.707.5.5 0 11.707-.707zm1.414 2.121a.5.5 0 10-.707-.707.5.5 0 10.707.707zm1.415.708a.5.5 0 11-.707.707.5.5 0 01.707-.707zm1.414 2.12a.5.5 0 000-.706.5.5 0 10-.707.707.5.5 0 00.707 0z"></path>
            </g>
        </g>
        <defs>
            <clipPath id="clip0">
                <path transform="translate(.257)" d="M0 0h24v24H0z"></path>
            </clipPath>
        </defs>
    </symbol>
    <symbol viewBox="0 0 25 24" id="opacity">
        <path d="M16.937 7.32a7.5 7.5 0 00-5.356-5.09 7.5 7.5 0 00-4.004 14.45 7.5 7.5 0 005.357 5.091 7.5 7.5 0 009.094-9.094 7.5 7.5 0 00-5.09-5.357zM3.257 9.5a6.5 6.5 0 0112.53-2.42 7 7 0 00-1-.08 7.5 7.5 0 00-7.53 7.5c.003.335.03.67.08 1a6.51 6.51 0 01-4.08-6zm5 5a6.64 6.64 0 01.16-1.42l2.76 2.76a6.644 6.644 0 01-1.42.16 6.754 6.754 0 01-1.36-.14 6.75 6.75 0 01-.14-1.36zm4 1l-3.5-3.5a6.27 6.27 0 011.07-1.73l4.15 4.15a6.27 6.27 0 01-1.72 1.08zm2.44-1.78l-4.16-4.15a6.272 6.272 0 011.72-1.07l3.5 3.5a6.273 6.273 0 01-1.07 1.72h.01zm1.56-4.22a6.477 6.477 0 01-.16 1.41l-2.75-2.75a6.48 6.48 0 011.41-.16 6.75 6.75 0 011.36.14 6.747 6.747 0 01.14 1.36zm-1.5 11.5a6.51 6.51 0 01-6-4.08c.331.05.665.078 1 .08a7.5 7.5 0 007.5-7.5 6.99 6.99 0 00-.08-1 6.5 6.5 0 01-2.42 12.5z" ></path>
    </symbol>
    <symbol viewBox="0 0 25 24" id="report">
        <path d="M15.667 2H4.257v20h16V6.59L15.667 2zm3.59 19h-14V3h10l4 4v14zm-11-7h5v-1h-5v1zm0-3h8v-1h-8v1z" ></path>
    </symbol>
    <symbol viewBox="0 0 25 24" id="roll-up">
        <path d="M22.257 11.5h-20v1h20v-1z" ></path>
    </symbol>
    <symbol viewBox="0 0 25 24" id="saggital">
        <path d="M4.586 18.59l-.03-10.76 9.37-5.41.01 5.31 1-.57-.02-6.46-11.35 6.55.04 13.05 5.98-3.46-.01-1.14-4.99 2.89z" ></path>
        <path d="M13.946 8.87l-.01-1.14-4.37 2.53.01 5.44.99-.57-.01-4.31 3.39-1.95z" ></path>
        <path d="M20.946 16.75l-.03-13.04-5.98 3.45v1.13l4.99-2.88.03 10.77-9.37 5.4-.01-5.31-.99.57.02 6.46 11.34-6.55z" ></path>
        <path d="M10.566 15.13l-.99.57.01 1.14.99-.57-.01-1.14zm3.38-6.26l.99-.58V7.16l-1 .57.01 1.14z" ></path>
    </symbol>
    <symbol viewBox="0 0 25 24" id="scissors">
        <path d="M20.697 4.48a1 1 0 00-1.42 0l-6.81 6.81-2.82-2.82A3.5 3.5 0 106.756 10a3.47 3.47 0 002.2-.8l2.8 2.8-2.8 2.8a3.47 3.47 0 00-2.2-.8 3.51 3.51 0 00-3.414 2.66 3.51 3.51 0 106.303-1.13l2.82-2.82 6.79 6.81a1 1 0 001.42 0L13.166 12l7.53-7.52zM6.757 9a2.5 2.5 0 110-5 2.5 2.5 0 010 5zm0 11a2.5 2.5 0 110-5 2.5 2.5 0 010 5z"></path>
    </symbol>
    <symbol viewBox="0 0 25 24" id="settings">
        <path d="M19.897 10.71l2.81-2.16a11.704 11.704 0 00-.92-2.05 11.597 11.597 0 00-1.32-1.82L17.197 6l-2.24-1.26-.46-3.51a11 11 0 00-4.48 0l-.46 3.51L7.317 6l-3.27-1.32c-.498.563-.94 1.172-1.32 1.82a11.71 11.71 0 00-.92 2.05l2.81 2.16v2.58l-2.81 2.16a11.713 11.713 0 00.92 2.05c.38.648.822 1.258 1.32 1.82L7.317 18l2.24 1.26.46 3.51a11 11 0 004.48 0l.46-3.51 2.24-1.26 3.27 1.35c.497-.562.94-1.172 1.32-1.82a11.707 11.707 0 00.92-2.05l-2.81-2.16v-2.61zm1.61 5.08a10.4 10.4 0 01-.59 1.21 9.103 9.103 0 01-.75 1.12l-2.59-1.07-.46-.19-.42.24-2.24 1.29-.43.25-.06.49-.37 2.78a10.004 10.004 0 01-2.68 0l-.37-2.78-.06-.49-.43-.25-2.24-1.29-.42-.24-.46.19-2.59 1.07a9.114 9.114 0 01-.75-1.12 10.415 10.415 0 01-.59-1.21l2.25-1.71.39-.3v-3.56l-.39-.3-2.25-1.71c.17-.415.367-.82.59-1.21a9.11 9.11 0 01.75-1.12L6.937 7l.46.19.42-.24 2.24-1.34.43-.25.06-.49.37-2.78a10 10 0 012.68 0l.37 2.78.06.49.43.25 2.24 1.29.42.24.46-.14 2.59-1.07c.275.339.526.696.75 1.07.222.39.42.795.59 1.21l-2.25 1.71-.39.3v3.56l.39.3 2.25 1.71zm-9.25-7.29a3.5 3.5 0 00-3.433 4.183 3.5 3.5 0 002.75 2.75 3.5 3.5 0 003.593-1.488 3.5 3.5 0 00-2.91-5.444zm0 6a2.5 2.5 0 110-5 2.5 2.5 0 010 5z"></path>
    </symbol>
    <symbol viewBox="0 0 25 24" id="square">
        <path d="M20.257 4v16h-16V4h16zm1-1h-18v18h18V3z"></path>
    </symbol>
    <symbol viewBox="0 0 25 24" id="T">
        <path d="M18.957 2H5.547v1h6.21v19h1V3h6.2V2z"></path>
    </symbol>
    <symbol id="edit" width="24" height="24" viewBox="0 0 24 24">
        <path d="M20.3765 4.98256L19.0174 3.62346C18.8281 3.43412 18.6033 3.28392 18.3559 3.18146C18.1085 3.07899 17.8434 3.02625 17.5756 3.02625C17.3079 3.02625 17.0428 3.07899 16.7954 3.18146C16.548 3.28392 16.3232 3.43412 16.1339 3.62346L3 16.7574V21H7.2427L20.3765 7.86606C20.7589 7.48367 20.9737 6.96506 20.9737 6.4243C20.9737 5.88355 20.7589 5.36494 20.3765 4.98256ZM6.8285 20H4V17.1716L14.2323 6.93926L17.0607 9.76766L6.8285 20ZM19.6694 7.15896L17.7677 9.06066L14.9393 6.23225L16.8409 4.33055C17.0358 4.13572 17.3 4.02626 17.5756 4.02626C17.8512 4.02626 18.1154 4.13572 18.3103 4.33055L19.6694 5.68996C19.8639 5.88492 19.9731 6.14907 19.9731 6.42446C19.9731 6.69984 19.8639 6.96399 19.6694 7.15896Z"/>
    </symbol>
    <symbol viewBox="0 0 25 24" id="target">
        <path d="M20.257 11.5a8 8 0 00-7.5-7.5V1h-1v3a8 8 0 00-7.5 7.5h-3v1h3a8 8 0 007.5 7.5v3h1v-3a8 8 0 007.5-7.5h3v-1h-3zm-8 7.5a7 7 0 01-4.95-11.95A7 7 0 1112.257 19zm0-7.75a.75.75 0 00-.736.896.75.75 0 00.59.59.75.75 0 00.896-.736.76.76 0 00-.75-.75z" ></path>
    </symbol>
    <symbol viewBox="0 0 25 24" id="transverse">
        <g clip-path="url(#clip0)">
            <path d="M16.537 12.59l5.05 2.92-9.3 5.4-9.36-5.41 5.05-2.94-.99-.57-6.05 3.51 11.35 6.55 11.28-6.55-6.04-3.49-.99.58z"></path>
            <path d="M2.926 8.5l9.3-5.4 9.36 5.4-5.05 2.94.99.57 6.04-3.51-11.35-6.55L.936 8.5l6.05 3.49.99-.58-5.05-2.91z"></path>
            <path d="M12.287 13.91l-3.32-1.92-.99.57 4.31 2.49 4.25-2.46-.99-.57-3.26 1.89z"></path>
            <path d="M15.547 12.02l.99.57.99-.58-.99-.57-.99.58zm-6.58-.03l-.99-.58-.99.58.99.57.99-.57z"></path>
        </g>
        <defs>
            <clipPath id="clip0">
                <path transform="translate(.257)" d="M0 0h24v24H0z"></path>
            </clipPath>
        </defs>
    </symbol>
    <symbol viewBox="0 0 25 24" id="triangle">
        <g clip-path="url(#clip0)">
            <path d="M12.257 3l9.81 17H2.447l9.81-17zm0-2L.707 21h23.1L12.257 1z" ></path>
        </g>
        <defs>
            <clipPath id="clip0">
                <path transform="translate(.257)" d="M0 0h24v24H0z"></path>
            </clipPath>
        </defs>
    </symbol>
    <symbol viewBox="0 0 25 24" id="V">
        <path d="M18.417 1.98l-6.16 18.81-6.15-18.81h-1.06L11.597 22h1.32l6.55-20.02h-1.05z"></path>
    </symbol>
    <symbol viewBox="0 0 25 24" id="zoom">
        <path d="M21.8534 21.1465L15.9934 15.2865C17.3721 13.7241 18.0886 11.6864 17.9912 9.60497C17.8937 7.52352 16.99 5.56171 15.4714 4.13495C13.9527 2.70819 11.9384 1.92851 9.8549 1.961C7.77143 1.99349 5.78239 2.83561 4.30897 4.30903C2.83554 5.78245 1.99343 7.77149 1.96094 9.85497C1.92845 11.9384 2.70813 13.9528 4.13489 15.4714C5.56165 16.9901 7.52346 17.8938 9.60491 17.9912C11.6864 18.0887 13.724 17.3722 15.2864 15.9935L21.1464 21.8535L21.8534 21.1465ZM9.99993 17C8.61546 17 7.26208 16.5894 6.11094 15.8203C4.95979 15.0511 4.06259 13.9579 3.53277 12.6788C3.00296 11.3997 2.86434 9.99223 3.13443 8.63436C3.40453 7.27649 4.07122 6.02921 5.05018 5.05024C6.02915 4.07128 7.27643 3.40459 8.6343 3.13449C9.99216 2.8644 11.3996 3.00302 12.6787 3.53283C13.9578 4.06265 15.051 4.95986 15.8202 6.111C16.5894 7.26214 16.9999 8.61552 16.9999 9.99999C16.9978 11.8559 16.2597 13.6351 14.9474 14.9474C13.6351 16.2597 11.8558 16.9979 9.99993 17Z" />    </symbol>
    <symbol viewBox="0 0 25 24" id="zoom_100">
        <path d="M15.9934 15.2865C17.3721 13.7241 18.0886 11.6864 17.9912 9.60497C17.8937 7.52352 16.99 5.56171 15.4714 4.13495C13.9527 2.70819 11.9384 1.92851 9.8549 1.961C7.77143 1.99349 5.78239 2.83561 4.30897 4.30903C2.83554 5.78245 1.99343 7.77149 1.96094 9.85497C1.92845 11.9384 2.70813 13.9528 4.13489 15.4714C5.56165 16.9901 7.52346 17.8938 9.60491 17.9912C11.6864 18.0887 13.724 17.3722 15.2864 15.9935L21.1464 21.8535L21.8534 21.1465L15.9934 15.2865ZM9.99993 17C8.61546 17 7.26208 16.5894 6.11094 15.8203C4.95979 15.0511 4.06259 13.9579 3.53277 12.6788C3.00296 11.3997 2.86434 9.99223 3.13443 8.63436C3.40453 7.27649 4.07122 6.02921 5.05018 5.05024C6.02915 4.07128 7.27643 3.40459 8.6343 3.13449C9.99216 2.8644 11.3996 3.00302 12.6787 3.53283C13.9578 4.06265 15.051 4.95986 15.8202 6.111C16.5894 7.26214 16.9999 8.61552 16.9999 9.99999C16.9978 11.8559 16.2597 13.6351 14.9474 14.9474C13.6351 16.2597 11.8558 16.9979 9.99993 17ZM12.0839 7.20899L9.99993 9.29299L7.91593 7.20899L7.20893 7.91599L9.29293 9.99999L7.20893 12.084L7.91593 12.791L9.99993 10.707L12.0839 12.791L12.7909 12.084L10.7069 9.99999L12.7909 7.91599L12.0839 7.20899Z"/>    </symbol>
</svg>
