<?xml version="1.0" encoding="UTF-8" standalone="no"?>
<!-- Created with Inkscape (http://www.inkscape.org/) -->

<svg
   xmlns:dc="http://purl.org/dc/elements/1.1/"
   xmlns:cc="http://creativecommons.org/ns#"
   xmlns:rdf="http://www.w3.org/1999/02/22-rdf-syntax-ns#"
   xmlns:svg="http://www.w3.org/2000/svg"
   xmlns="http://www.w3.org/2000/svg"
   xmlns:sodipodi="http://sodipodi.sourceforge.net/DTD/sodipodi-0.dtd"
   xmlns:inkscape="http://www.inkscape.org/namespaces/inkscape"
   width="202.01268mm"
   height="187.48663mm"
   viewBox="0 0 202.01268 187.48663"
   version="1.1"
   id="svg3717"
   sodipodi:docname="med3web_logo.svg"
   inkscape:version="0.92.1 r15371">
  <defs
     id="defs3711">
    <inkscape:path-effect
       effect="mirror_symmetry"
       start_point="106.61024,13.829513"
       end_point="106.61024,88.801857"
       center_point="106.61024,51.315685"
       id="path-effect3748"
       is_visible="true"
       mode="free"
       discard_orig_path="false"
       fuse_paths="false"
       oposite_fuse="false" />
  </defs>
  <sodipodi:namedview
     id="base"
     pagecolor="#ffffff"
     bordercolor="#666666"
     borderopacity="1.0"
     inkscape:pageopacity="0.0"
     inkscape:pageshadow="2"
     inkscape:zoom="0.98994949"
     inkscape:cx="568.59723"
     inkscape:cy="314.50486"
     inkscape:document-units="mm"
     inkscape:current-layer="layer1"
     showgrid="false"
     inkscape:window-width="1680"
     inkscape:window-height="987"
     inkscape:window-x="-8"
     inkscape:window-y="-8"
     inkscape:window-maximized="1"
     inkscape:snap-grids="true"
     inkscape:snap-to-guides="true"
     fit-margin-top="0"
     fit-margin-left="0"
     fit-margin-right="0"
     fit-margin-bottom="0" />
  <metadata
     id="metadata3714">
    <rdf:RDF>
      <cc:Work
         rdf:about="">
        <dc:format>image/svg+xml</dc:format>
        <dc:type
           rdf:resource="http://purl.org/dc/dcmitype/StillImage" />
        <dc:title></dc:title>
      </cc:Work>
    </rdf:RDF>
  </metadata>
  <g
     inkscape:label="Layer 1"
     inkscape:groupmode="layer"
     id="layer1"
     transform="translate(-5.6039003,-8.1690236)">
    <path
       style="fill:#ffd5d5;fill-opacity:1;stroke:#c0c0c0;stroke-width:3.66499996;stroke-linecap:round;stroke-linejoin:round;stroke-miterlimit:4;stroke-dasharray:none;stroke-opacity:1"
       d="m 106.65413,15.394317 c -5.66177,0.635748 -7.792602,-9.6030176 -16.583126,-3.376314 -4.572248,3.238718 -9.864265,6.111437 -8.029217,12.401886 3.368974,11.548661 11.402942,5.592007 15.509591,16.308873 4.106652,10.716866 1.502046,31.87158 1.434491,35.638297 -0.191933,10.701876 7.624371,12.427348 7.624371,12.427348 M 34.017857,188.89881 C 52.934137,213.80046 100.85192,126.26608 98.65179,109.14583 97.2322,98.099326 87.05164,88.098556 85.148037,74.030403 83.31289,60.468158 79.672522,48.406628 68.035714,52.071429 57.474953,55.397348 30.671471,55.525848 21.166666,48.291666 11.593445,41.005412 8.4224945,59.537053 7.5595235,74.372024 6.3928491,94.427827 13.937037,112.19577 16.630952,129.55656 c 3.401786,21.92262 -0.416578,35.90551 17.386905,59.34225 z M 7.9375005,74.75 C 51.404761,95.160717 84.666666,75.883928 84.666666,75.883928 M 10.583333,102.72024 c 44.60119,14.74107 82.020833,-8.693453 82.020833,-8.693453 M 18.520833,135.60417 C 67.657738,138.25 96.761904,116.32738 96.761904,116.32738 M 20.032738,158.28274 C 65.767857,157.14881 90.336309,136.7381 90.336309,136.7381 M 106.56635,15.394317 c 5.66177,0.635748 7.7926,-9.6030176 16.58313,-3.376314 4.57224,3.238718 9.86426,6.111437 8.02921,12.401886 -3.36897,11.548661 -11.40294,5.592007 -15.50959,16.308873 -4.10665,10.716866 -1.50204,31.87158 -1.43449,35.638297 0.19193,10.701876 -7.62437,12.427348 -7.62437,12.427348 m 72.59238,100.104403 c -18.91628,24.90165 -66.83406,-62.63273 -64.63393,-79.75298 1.41959,-11.046504 11.60015,-21.047274 13.50375,-35.115427 1.83515,-13.562245 5.47552,-25.623775 17.11233,-21.958974 10.56076,3.325919 37.36424,3.454419 46.86904,-3.779763 9.57322,-7.286254 12.74418,11.245387 13.60715,26.080358 1.16667,20.055803 -6.37752,37.823746 -9.07143,55.184536 -3.40179,21.92262 0.41658,35.90551 -17.38691,59.34225 z M 205.28298,74.75 c -43.46726,20.410717 -76.72917,1.133928 -76.72917,1.133928 m 74.08334,26.836312 c -44.60119,14.74107 -82.02084,-8.693453 -82.02084,-8.693453 m 74.08334,41.577383 C 145.56274,138.25 116.45858,116.32738 116.45858,116.32738 m 76.72916,41.95536 C 147.45262,157.14881 122.88417,136.7381 122.88417,136.7381"
       id="path3731-6"
       inkscape:connector-curvature="0"
       inkscape:path-effect="#path-effect3748"
       inkscape:original-d="m 106.65413,15.394317 c -5.66177,0.635748 -7.792602,-9.6030176 -16.583126,-3.376314 -4.572248,3.238718 -9.864265,6.111437 -8.029217,12.401886 3.368974,11.548661 11.402942,5.592007 15.509591,16.308873 4.106652,10.716866 1.502046,31.87158 1.434491,35.638297 -0.191933,10.701876 7.624371,12.427348 7.624371,12.427348 M 34.017857,188.89881 C 52.934137,213.80046 100.85192,126.26608 98.65179,109.14583 97.2322,98.099326 87.05164,88.098556 85.148037,74.030403 83.31289,60.468158 79.672522,48.406628 68.035714,52.071429 57.474953,55.397348 30.671471,55.525848 21.166666,48.291666 11.593445,41.005412 8.4224945,59.537053 7.5595235,74.372024 6.3928491,94.427827 13.937037,112.19577 16.630952,129.55656 c 3.401786,21.92262 -0.416578,35.90551 17.386905,59.34225 z M 7.9375005,74.75 C 51.404761,95.160717 84.666666,75.883928 84.666666,75.883928 M 10.583333,102.72024 c 44.60119,14.74107 82.020833,-8.693453 82.020833,-8.693453 M 18.520833,135.60417 C 67.657738,138.25 96.761904,116.32738 96.761904,116.32738 M 20.032738,158.28274 C 65.767857,157.14881 90.336309,136.7381 90.336309,136.7381"
       sodipodi:nodetypes="csssscsssssssscccccccc" />
    <path
       style="fill:#ffd5d5;stroke:#c0c0c0;stroke-width:3.46499991;stroke-linecap:butt;stroke-linejoin:miter;stroke-miterlimit:4;stroke-dasharray:none;stroke-opacity:1"
       d="m 106.58929,194.56845 0.0209,-105.774044"
       id="path4629"
       inkscape:connector-curvature="0"
       sodipodi:nodetypes="cc" />
    <path
       style="fill:none;stroke:#c0c0c0;stroke-width:4.06500006;stroke-linecap:butt;stroke-linejoin:miter;stroke-miterlimit:4;stroke-dasharray:none;stroke-opacity:1"
       d="m 99.785714,130.3125 c 14.363096,0.37798 15.119046,0.37798 15.119046,0.37798"
       id="path4631"
       inkscape:connector-curvature="0" />
    <path
       style="fill:none;stroke:#c0c0c0;stroke-width:4.06500006;stroke-linecap:butt;stroke-linejoin:miter;stroke-miterlimit:4;stroke-dasharray:none;stroke-opacity:1"
       d="m 99.056501,143.35232 c 14.363089,0.37798 15.119039,0.37798 15.119039,0.37798"
       id="path4631-8"
       inkscape:connector-curvature="0" />
    <path
       style="fill:none;stroke:#c0c0c0;stroke-width:4.06500006;stroke-linecap:butt;stroke-linejoin:miter;stroke-miterlimit:4;stroke-dasharray:none;stroke-opacity:1"
       d="m 99.056497,157.33744 c 14.363093,0.37798 15.119043,0.37798 15.119043,0.37798"
       id="path4631-8-5"
       inkscape:connector-curvature="0" />
    <path
       style="fill:none;stroke:#c0c0c0;stroke-width:4.06500006;stroke-linecap:butt;stroke-linejoin:miter;stroke-miterlimit:4;stroke-dasharray:none;stroke-opacity:1"
       d="m 99.056495,173.59042 c 14.363105,0.37798 15.119055,0.37798 15.119055,0.37798"
       id="path4631-8-5-2"
       inkscape:connector-curvature="0" />
    <path
       style="fill:none;stroke:#c0c0c0;stroke-width:4.06500006;stroke-linecap:butt;stroke-linejoin:miter;stroke-miterlimit:4;stroke-dasharray:none;stroke-opacity:1"
       d="m 99.0565,193.24518 c 14.36309,0.37798 15.11904,0.37798 15.11904,0.37798"
       id="path4631-8-5-0"
       inkscape:connector-curvature="0" />
    <path
       style="fill:#ffaaaa;fill-opacity:1;stroke:#c0c0c0;stroke-width:1.61979759;stroke-miterlimit:4;stroke-dasharray:none;stroke-opacity:1"
       d="m 157.14286,309.54072 c -35.82582,-3.1264 -74.973532,-12.85294 -108.214289,-26.88664 -14.431154,-6.0926 -13.455639,-3.25974 -10.330827,-30.00029 4.182635,-35.79287 13.087149,-62.63371 22.49779,-67.81499 3.684733,-2.02873 4.362614,-1.94368 10,1.2547 24.96412,14.16344 32.638646,17.05811 58.190176,21.94813 14.48371,2.77188 21.16391,3.14512 56.42858,3.15285 40.99412,0.009 51.80795,-1.05902 72.75928,-7.186 19.46247,-5.69157 31.7401,0.0559 41.57384,19.46191 3.9068,7.70972 9.58939,27.87121 12.05305,42.76358 0.84487,5.10714 1.83667,10.65853 2.204,12.33642 0.57988,2.64885 -0.88276,3.71173 -11.10402,8.06898 -42.5366,18.13311 -99.08824,27.00022 -146.05758,22.90135 z"
       id="path4719"
       inkscape:connector-curvature="0"
       transform="scale(0.26458333)" />
    <path
       style="fill:#ffaaaa;fill-opacity:1;stroke:#c0c0c0;stroke-width:1.61979759;stroke-miterlimit:4;stroke-dasharray:none;stroke-opacity:1"
       d="m 585.36826,308.37084 c -29.5835,-3.77402 -61.8518,-12.39046 -85.39631,-22.80296 -6.92995,-3.06475 -7.82909,-3.9455 -7.82909,-7.66891 0,-7.03082 4.28951,-27.34731 8.6473,-40.95642 9.49615,-29.65585 23.23336,-39.58544 45.7934,-33.1006 22.09348,6.35074 32.18689,7.36158 73.41644,7.35253 35.26467,-0.008 41.94487,-0.38097 56.42857,-3.15285 20.42633,-3.90916 32.33619,-7.74633 44.28572,-14.26817 20.03887,-10.93684 19.9215,-10.89101 23.59758,-9.21608 10.6298,4.84327 21.01309,39.11723 24.33649,80.33186 l 0.98591,12.22669 -8.53344,3.82959 c -24.27689,10.89482 -56.59886,20.36304 -86.73707,25.40829 -23.02802,3.85498 -66.81003,4.84727 -88.9955,2.01703 z"
       id="path4721"
       inkscape:connector-curvature="0"
       transform="scale(0.26458333)" />
    <path
       style="fill:#ff5555;fill-opacity:1;stroke:#c0c0c0;stroke-width:1.61979759;stroke-miterlimit:4;stroke-dasharray:none;stroke-opacity:1"
       d="m 125.71429,398.20829 c -19.24961,-2.00372 -39.79796,-5.55983 -58.143577,-10.06237 l -21.000716,-5.15417 -2.139075,-9.45032 c -3.175699,-14.03006 -7.631967,-47.30574 -8.705043,-65.00197 -0.890782,-14.69001 -0.798503,-15.49233 1.665545,-14.48107 53.166669,21.81983 95.401636,30.74701 145.465716,30.74701 45.85545,0 90.53023,-8.74756 126.96369,-24.86016 l 7.62187,-3.37076 2.52299,8.04403 c 1.38764,4.42422 6.9709,16.63293 12.40724,27.13046 9.24976,17.86125 9.72008,19.21051 7.32708,21.01927 -4.97778,3.76246 -37.50841,17.74916 -56.33172,24.2201 -42.40436,14.57744 -77.04739,20.64149 -121.93972,21.34478 -16.5,0.25849 -32.57143,0.20232 -35.71428,-0.12483 z"
       id="path4723"
       inkscape:connector-curvature="0"
       transform="scale(0.26458333)" />
    <path
       style="fill:#ff5555;fill-opacity:1;stroke:#c0c0c0;stroke-width:1.61979759;stroke-miterlimit:4;stroke-dasharray:none;stroke-opacity:1"
       d="m 622.14286,398.09201 c -14.36756,-1.11734 -40.23765,-5.06525 -55.64063,-8.49104 -34.23798,-7.61491 -84.80638,-26.54381 -102.6035,-38.40683 -0.21284,-0.14187 4.04856,-8.86952 9.46978,-19.39477 5.42122,-10.52526 10.98135,-22.72229 12.35586,-27.10452 l 2.49909,-7.9677 13.29122,5.47265 c 34.39155,14.16068 69.57858,21.16153 111.73913,22.23173 56.37543,1.43104 96.61528,-6.49496 155.8734,-30.70221 3.61735,-1.47771 -0.63842,45.15242 -6.91275,75.74261 -1.42257,6.93564 -2.82422,12.79884 -3.11476,13.02932 -1.6997,1.34829 -30.48136,8.36221 -44.2788,10.79049 -29.64117,5.21668 -64.26406,7.00998 -92.67804,4.80027 z"
       id="path4725"
       inkscape:connector-curvature="0"
       transform="scale(0.26458333)" />
    <path
       style="fill:#ff0000;fill-opacity:1;stroke:#c0c0c0;stroke-width:1.61979759;stroke-miterlimit:4;stroke-dasharray:none;stroke-opacity:1"
       d="m 76.90858,505.31691 c -4.248144,-0.63366 -4.578369,-1.12039 -5.490634,-8.09286 -1.87548,-14.33433 -6.670492,-37.70047 -13.65295,-66.53093 -3.877891,-16.01176 -7.05071,-29.60398 -7.05071,-30.20494 0,-0.60096 5.981274,0.42615 13.29172,2.28247 27.740525,7.04407 47.056424,9.43563 82.422564,10.20499 26.02738,0.5662 37.90525,0.20227 52.85714,-1.6195 47.43949,-5.78012 90.54665,-18.17682 132.76296,-38.17979 9.76963,-4.62905 18.22787,-7.92408 18.79609,-7.32228 2.12383,2.24938 8.77775,19.81119 11.419,30.13834 2.76865,10.82533 3.37341,27.12334 1.30767,35.24156 -0.59979,2.35714 -1.16659,3.83515 -1.25956,3.28446 -0.093,-0.55068 -5.21138,2.12613 -11.37428,5.94848 -52.39595,32.497 -124.64775,55.58603 -196.65188,62.84276 -17.08072,1.72143 -70.076554,3.0962 -77.37713,2.00724 z"
       id="path4727"
       inkscape:connector-curvature="0"
       transform="scale(0.26458333)" />
    <path
       style="fill:#ff0000;fill-opacity:1;stroke:#c0c0c0;stroke-width:1.61979759;stroke-miterlimit:4;stroke-dasharray:none;stroke-opacity:1"
       d="m 667.14286,504.63634 c -75.69887,-5.26033 -153.71329,-28.60048 -210.37414,-62.93917 -6.86565,-4.16086 -12.92074,-7.42848 -13.45575,-7.26138 -1.70414,0.53226 -3.00686,-15.36734 -2.07799,-25.36167 1.03381,-11.12341 5.37111,-26.12397 10.52813,-36.41158 1.96933,-3.92857 3.7539,-7.33991 3.9657,-7.58076 0.2118,-0.24084 7.68803,3.04686 16.61385,7.30602 43.34796,20.68443 86.17417,33.13068 134.08591,38.96834 14.97929,1.82511 26.78209,2.18421 52.85714,1.6082 35.85122,-0.79197 51.21863,-2.62245 79.08535,-9.42016 C 747.51697,401.31315 755,399.96064 755,400.53859 c 0,0.57796 -2.87176,12.91275 -6.38169,27.41065 -6.24427,25.79226 -12.57424,56.72608 -14.3004,69.88444 -0.86508,6.59459 -0.87087,6.60041 -7.43408,7.5 -8.48707,1.16329 -37.90764,0.81987 -59.74097,-0.69734 z"
       id="path4729"
       inkscape:connector-curvature="0"
       transform="scale(0.26458333)" />
    <path
       style="fill:#d40000;fill-opacity:1;stroke:#c0c0c0;stroke-width:1.61979759;stroke-miterlimit:4;stroke-dasharray:none;stroke-opacity:1"
       d="m 79.936408,581.59111 c -0.582127,-4.91071 -2.095105,-20.5 -3.362175,-34.64285 l -2.303762,-25.71429 35.721909,-0.87279 c 36.75835,-0.89812 51.37631,-2.18034 82.03273,-7.19555 53.93722,-8.8238 113.3947,-29.18032 155.47489,-53.23008 4.91071,-2.80659 8.92857,-4.35683 8.92857,-3.445 0,2.40513 -15.33351,40.43118 -20.22763,50.16311 -3.46754,6.89518 -5.77658,9.32106 -13.83243,14.53237 -44.61461,28.86105 -103.31457,50.75612 -164.73286,61.44534 -19.62088,3.41481 -60.053342,7.88832 -71.29626,7.88832 h -5.34457 z"
       id="path4731"
       inkscape:connector-curvature="0"
       transform="scale(0.26458333)" />
    <path
       style="fill:#d40000;fill-opacity:1;stroke:#c0c0c0;stroke-width:1.61979759;stroke-miterlimit:4;stroke-dasharray:none;stroke-opacity:1"
       d="m 690,588.33427 c -49.30316,-4.92975 -93.86141,-15.30033 -135.52787,-31.54305 -22.65277,-8.83067 -56.92124,-26.03373 -71.61427,-35.95097 -9.83589,-6.63886 -10.10884,-6.99423 -16.70462,-21.74914 -6.13726,-13.72919 -16.86753,-41.21479 -16.86753,-43.20621 0,-0.45824 9.80358,4.21627 21.78572,10.38779 70.04179,36.07573 148.26216,54.18488 234.25,54.23226 l 26.75,0.0147 -0.65366,3.92857 c -0.35951,2.16071 -1.33248,12.28571 -2.16217,22.5 -0.82969,10.21428 -2.21071,24.19643 -3.06896,31.07143 l -1.56044,12.5 -8.02739,-0.16425 C 712.18376,590.26511 700.21429,589.35558 690,588.33427 Z"
       id="path4733"
       inkscape:connector-curvature="0"
       transform="scale(0.26458333)" />
    <path
       style="fill:#550000;fill-opacity:1;stroke:#c0c0c0;stroke-width:1.61979759;stroke-miterlimit:4;stroke-dasharray:none;stroke-opacity:1"
       d="m 146.77328,719.70961 c -7.86938,-3.92147 -13.9092,-11.11802 -29.2939,-34.90421 -14.44156,-22.32801 -27.359404,-51.93744 -32.253153,-73.92857 l -1.351092,-6.07143 h 8.268212 c 19.331723,0 59.921683,-5.30686 89.285223,-11.67343 44.6661,-9.68445 91.5926,-26.76349 126.07143,-45.88407 6.48214,-3.59474 11.78571,-6.25832 11.78571,-5.91907 0,0.33926 -4.88398,9.43043 -10.85331,20.20261 -47.37597,85.49424 -101.1709,148.16829 -136.65691,159.21277 -11.32782,3.52562 -16.26069,3.32149 -25.00221,-1.0346 z"
       id="path4735"
       inkscape:connector-curvature="0"
       transform="scale(0.26458333)" />
    <path
       style="fill:#550000;fill-opacity:1;stroke:#c0c0c0;stroke-width:1.61979759;stroke-miterlimit:4;stroke-dasharray:none;stroke-opacity:1"
       d="m 635.71429,721.37086 c -16.26532,-5.1658 -33.86117,-18.05637 -54.59023,-39.99232 -26.93022,-28.49817 -60.92388,-77.54813 -86.0643,-124.18348 -7.0222,-13.02614 -8.35731,-17.72401 -4.02285,-14.15527 3.60088,2.96477 39.26136,20.21473 53.2488,25.75793 32.54595,12.8979 68.41817,22.90829 103.35299,28.84138 21.45341,3.64349 53.44051,7.13024 65.6028,7.15101 l 8.95579,0.0153 -0.89239,3.92857 c -0.49081,2.16072 -3.34143,11.38526 -6.33471,20.49898 -8.52055,25.94273 -22.33395,51.76917 -40.93793,76.54029 -11.72115,15.60663 -23.36539,20.34652 -38.31797,15.59762 z"
       id="path4737"
       inkscape:connector-curvature="0"
       transform="scale(0.26458333)" />
  </g>
</svg>
