<svg width="25" height="24" viewBox="0 0 25 24" fill="none" xmlns="http://www.w3.org/2000/svg">
    <path d="M20.7471 3.50995C20.2826 3.04432 19.7309 2.67489 19.1234 2.42283C18.516 2.17076 17.8648 2.04102 17.2071 2.04102C16.5494 2.04102 15.8982 2.17076 15.2908 2.42283C14.6833 2.67489 14.1316 3.04432 13.6671 3.50995L11.4771 5.70995C11.9016 5.70989 12.3245 5.76024 12.7371 5.85995L14.3771 4.21995C15.1277 3.46939 16.1456 3.04773 17.2071 3.04773C18.2686 3.04773 19.2865 3.46939 20.0371 4.21995C20.7877 4.97052 21.2093 5.9885 21.2093 7.04995C21.2093 8.11141 20.7877 9.12939 20.0371 9.87995L15.7971 14.12C15.4256 14.4919 14.9845 14.7869 14.4989 14.9882C14.0133 15.1895 13.4928 15.2931 12.9671 15.2931C12.4414 15.2931 11.9209 15.1895 11.4353 14.9882C10.9497 14.7869 10.5086 14.4919 10.1371 14.12C9.64125 13.6179 9.29498 12.9877 9.1371 12.3L8.3771 13.06C8.58007 13.7279 8.94407 14.3357 9.4371 14.83C10.3747 15.7673 11.6463 16.2939 12.9721 16.2939C14.2979 16.2939 15.5695 15.7673 16.5071 14.83L20.7571 10.59C21.2221 10.1248 21.5907 9.57256 21.8419 8.96475C22.0931 8.35695 22.222 7.70555 22.221 7.04788C22.2201 6.39021 22.0894 5.73918 21.8365 5.13208C21.5836 4.52499 21.2134 3.97375 20.7471 3.50995ZM10.1371 19.78C9.76546 20.1516 9.32425 20.4464 8.83868 20.6475C8.35311 20.8487 7.83268 20.9522 7.3071 20.9522C6.78152 20.9522 6.26108 20.8487 5.77551 20.6475C5.28994 20.4464 4.84874 20.1516 4.4771 19.78C3.72653 19.0294 3.30487 18.0114 3.30487 16.95C3.30487 15.8885 3.72653 14.8705 4.4771 14.12L8.7171 9.87995C9.08859 9.50805 9.52974 9.21301 10.0153 9.01171C10.5009 8.81042 11.0214 8.70681 11.5471 8.70681C12.0728 8.70681 12.5933 8.81042 13.0789 9.01171C13.5645 9.21301 14.0056 9.50805 14.3771 9.87995C14.8729 10.382 15.2192 11.0122 15.3771 11.7L16.1371 10.94C15.9341 10.272 15.5701 9.66419 15.0771 9.16995C14.1395 8.2326 12.8679 7.70602 11.5421 7.70602C10.2163 7.70602 8.94474 8.2326 8.0071 9.16995L3.7671 13.41C2.82823 14.3488 2.30078 15.6222 2.30078 16.95C2.30078 18.2777 2.82823 19.5511 3.7671 20.49C4.70596 21.4288 5.97934 21.9563 7.3071 21.9563C8.63486 21.9563 9.90823 21.4288 10.8471 20.49L13.0371 18.29C12.6126 18.29 12.1897 18.2397 11.7771 18.14L10.1371 19.78Z" fill="#636666"/>
</svg>
